<svg width="128" height="128" viewBox="0 0 128 128" fill="none" xmlns="http://www.w3.org/2000/svg">
    <defs>
        <linearGradient id="bg" x1="8" y1="8" x2="120" y2="120" gradientUnits="userSpaceOnUse">
            <stop stop-color="#191411"/>
            <stop offset="1" stop-color="#0E0B12"/>
        </linearGradient>
        <linearGradient id="blade" x1="22" y1="22" x2="106" y2="106" gradientUnits="userSpaceOnUse">
            <stop stop-color="#F5E5BF"/>
            <stop offset="1" stop-color="#BBA06A"/>
        </linearGradient>
    </defs>

    <rect x="8" y="8" width="112" height="112" rx="24" fill="url(#bg)"/>
    <rect x="8.75" y="8.75" width="110.5" height="110.5" rx="23.25" stroke="#7A6028" stroke-opacity="0.7" stroke-width="1.5"/>

    <g transform="rotate(-38 64 64)">
        <rect x="59" y="20" width="10" height="62" rx="4" fill="url(#blade)"/>
        <rect x="53" y="74" width="22" height="8" rx="3" fill="#C9A84C"/>
        <rect x="60" y="82" width="8" height="20" rx="3" fill="#7A6028"/>
        <circle cx="64" cy="103" r="4" fill="#C9A84C"/>
    </g>

    <g transform="rotate(38 64 64)">
        <rect x="59" y="20" width="10" height="62" rx="4" fill="url(#blade)"/>
        <rect x="53" y="74" width="22" height="8" rx="3" fill="#C9A84C"/>
        <rect x="60" y="82" width="8" height="20" rx="3" fill="#7A6028"/>
        <circle cx="64" cy="103" r="4" fill="#C9A84C"/>
    </g>
</svg>
